<svg height="100%" stroke-miterlimit="10"
     style="fill-rule:nonzero;clip-rule:evenodd;stroke-linecap:round;stroke-linejoin:round;" version="1.1"
     viewBox="0 0 1024 1024" width="100%" xml:space="preserve" xmlns="http://www.w3.org/2000/svg"
     xmlns:xlink="http://www.w3.org/1999/xlink">
    <!-- Created with Vectornator (http://vectornator.io/) -->
    <defs/>
    <g id="Ebene-1">
<path
    d="M745.561 675.35C745.561 417.429 352.949 549.255 352.949 351.516C352.949 285.603 378.741 208.227 513.433 208.227C650.99 208.227 668.185 317.127 671.051 365.845L731.232 365.845C736.964 285.603 679.648 168.106 542.091 162.375L542.091 82.1328L483.342 82.1328L483.342 162.375C322.858 170.972 295.634 291.335 295.634 345.785C295.634 615.168 688.246 471.879 688.246 675.35C688.246 701.142 682.514 815.773 513.433 815.773C507.701 815.773 332.889 815.773 338.62 635.229L278.439 635.229C284.17 827.236 405.966 853.028 483.342 861.625L483.342 941.867L540.658 941.867L540.658 861.625C732.665 847.296 745.561 704.007 745.561 675.35Z"
    fill="#1f2937" fill-rule="nonzero" opacity="1" stroke="none"/>
</g>
</svg>
